<svg width="100" height="100" viewBox="0 0 100 100" xmlns="http://www.w3.org/2000/svg"><path fill="#4751A2" d="M18.1 78.7L50 97.3l31.9-18.6v-58L50 17.5l-31.9 3.2zm49.1-62h.3"/><path fill="#F1662A" d="M39.6 93.3c3.8 2.2 8.1 3.3 12.4 4.5 2.4-1.1 4.7-2.3 7-3.6 5.8-3.3 11.2-7.2 16.7-10.9-2.9-3.6-6.2-7.3-8.3-8.7H34.2s-4.4 5.2-7.9 10.3c4.8 2.3 8.6 5.7 13.3 8.4z"/><path fill="#151841" d="M52 98.3l-1.1-.3c-3.9-1.1-8-2.2-11.5-4.3-2-1.2-3.9-2.5-5.7-3.7-2.5-1.7-4.9-3.4-7.6-4.7l-.5-.3.3-.5c3.5-5.1 7.9-10.3 7.9-10.3l.1-.2h33.6l.1.1c2.5 1.7 6.3 6.2 8.4 8.8l.3.4-.3.4c-1.3.9-2.6 1.7-3.9 2.6-4.1 2.8-8.4 5.8-12.9 8.3-2.5 1.4-4.8 2.6-7 3.6l-.2.1zM27 84.7c2.6 1.3 4.9 2.9 7.2 4.5 1.8 1.2 3.6 2.5 5.6 3.7 3.5 2 7.3 3.1 11.3 4.2l.8.2c2.2-1 4.4-2.2 6.8-3.5 4.4-2.5 8.7-5.4 12.8-8.2 1.1-.8 2.3-1.6 3.4-2.3-3.3-4-6-6.9-7.7-8.1H34.4c-.7.8-4.3 5.2-7.4 9.5z"/><path fill="#E6A460" d="M39.6 88.6c.1.3-.5 2.2-1 4.1.3.2.6.4 1 .6.5.3 1.1.6 1.6.8.4-.3.9-.6 1.3-.9.6-.4 1.4-.2 1.7.5.2.5.4 1.2.6 1.8 2.2.8 4.5 1.4 6.8 2.1.2-.5.3-1 .5-1.4.3-.8 1.4-.9 1.8-.2l.3.6c.4-.2.9-.4 1.3-.7.2-1.8.6-4 1.5-4.6.4-.2 1.4 1.4 2.2 2.6.4-.2.7-.4 1.1-.6-.1-.7-.2-1.5-.3-2.3-.2-1.5 1.3-2.6 2.7-1.9 1.6.8 2.9 1.3 1.9.2-1.9-2.3-2.8-9.3-5.9-9.5-1.1-.1-3.6-2.2-3.6-2.2s-11.9-.9-12.5 0-2.3 3.3-2.3 3.3c-1 1.8-2.6 2-3.9 6.7-.6 2 2.9.5 3.2 1z"/><path fill="#151841" d="M50 100L16 80.1V19.5L50 16l34 3.5v60.6L50 100zM19 78.4l31 18.1 31-18.1V22.2L50 19l-31 3.2v56.2z"/><path fill="#F1662A" d="M73.8 53.3c-.1 5.6-.9 11.3-3.7 16.2-1.3 2.2-1.8 3.8-3.9 5.4-1.7 1.3-5.6.5-8.3 2.8 0 0-3.9 3.3-7.2 3.1-3.2-.2-6.4-2.9-6.4-2.9-1.6-1.6-5.5-1.8-7.8-2.6-2.8-1-7.2-9.6-7.5-11.1l-.7-2.9c-1-2.2-1.2-4.7-2.4-7-.9-1.4-1.5-2.6-1.8-4-.6-3.1-1.4-6.3-2-9.4-1-4.6-2.9-12.1.2-16.1 0 0 3.5-.8 9.7 5.8 3 2.6 6 7.7 9.7 9.2 0 0 1.3-1.3 2-2.6.9.7 2.5 1.7 3.7 1.4.9 0 1.5-.8 2.1-.8.5 0 1.4.5 1.6.5 2.2.9 2.1-1 3.5-.9 1.3 0 1.3 2.5 4.1.9l1.4-.1c3.5-3.7 10.6-13.2 16.6-11.9 5.4 1.3-1 22-2.8 27.1"/><path fill="#151841" d="M79.2 28.6c-1.1-4.4-6.2-2.8-9-.9-2.5 1.7-4.6 3.8-6.6 6-.9.9-1.7 2-2.6 3l-1 1.2c.1-.1-.7.1-1.1.1-.7.1-1.3.7-2 .4-.5-.2-.7-.6-1.1-.9-.6-.5-1.6-.5-2.2 0-.5.5-.9.9-1.7.7-.6-.2-1.3-.6-2-.7-.6-.1-1.2.3-1.6.5-1.3.8-3-.3-4-1-.3-.2-.7-.2-1 .1-.5.8-1 1.4-1.6 2.2-2.9-1.4-4.9-4.1-6.8-6.5-1.8-2.1-3.9-3.9-5.9-5.6-1-.8-2-1.7-3.3-2.2-1.2-.5-2-.4-3.2-.4-1 0-1.4 1.4-1.7 2.2-.5 1.3-.7 3-.7 4.4 0 3.1.6 6.2 1.3 9.3.5 1.8.6 3.8 1.1 5.6.5 2.1.6 4.2 1.5 6.2s2 3.7 2.6 5.8c.5 1.4 1 2.9 1.3 4.3.5 1.6.9 3 1.5 4.3 1.4 2.8 3 5.6 5.1 7.9 2 2.2 5.5 1.7 8 3 2.5 1.7 5.1 3.5 8.2 3.9 3.1.3 6-1.8 8.6-3.8 2-.9 4.3-.9 6.4-1.7 2.1-.7 3.3-3.1 4.3-4.8 1.5-2.6 2.6-5.2 3.5-8.1.6-2.5.9-5 1-7.5 0-.5.3-1.5.3-1.5 1.5-3.9 2.6-7.9 3.5-12 .7-4.7 1.9-9.4.9-13.5zM78.1 34c-.2 2.6-.7 5.1-1.3 7.5-.9 3.8-2 7.5-3.2 11.2-.2.1-.5 1.7-.5 2.3-.1 2.3-.4 4.5-.9 6.8-.6 2.9-1.8 5.4-3.2 7.9-1.1 2-2.1 4.3-4.6 4.9-1.1.3-2.1.4-3.1.6 0-.4-.5-.7-.9-.4-1 .6-3.1 2.2-3.1 2.2-2 1.4-4.3 2.8-6.7 2.6-1.8-.1-3.6-1.2-5-2.1-.5-.2-1.7-1.3-2-1.3-.9-.6-1.6-1.2-2.5-1.7-.5-.3-.9.1-.9.6-.9-.2-1.6-.3-2.4-.5-2.2-.5-3.5-2.2-4.7-4-2-3-3.5-6.1-4.4-9.6-.3-1.2-.7-2.2-1.1-3.5-.5-1.7-1-3.2-2-4.7-1.1-1.7-1.4-3.6-1.8-5.6-.5-1.8-.9-3.8-1.2-5.8-.5-2.9-1.2-5.6-1.5-8.6-.2-2.6-.2-5.5 1.3-7.7.6 0 1.3-.1 2 .1 1.1.3 2 1 2.9 1.7 1.5 1.2 2.8 2.5 4.1 3.7 3.2 2.8 6.6 8.9 10.2 9.5.9-.7 1.5-1.6 2.1-2.5 1 .6 2 1.2 3.1 1.3.6.1 1.2-.1 1.7-.4 1-.5 1.2-.4 2.1.1.9.4 1.8.5 2.6-.1.3-.2.6-.7 1.1-.7.3 0 .9.7 1.1.8.7.6 1.6.6 2.5.4.5-.1.7-.3 1.3-.4.3 0 .9 0 1.1-.2 1.8-2 3.5-4 5.4-5.9 2-2.2 4.4-4.3 7.3-5.5 1.7-.7 4-.9 4.7 1 .8 2.1.7 4.2.4 6z"/><path fill="#E6A460" d="M66.2 54.2c-.3-1-1.1-1.7-2.1-2-.9-.2-1.7 0-2.5-.1.1-.7.6-3-1-2.8-.9 0-1.7 2.5-2.2 3.1-.9 1.3-1.4.9-1.5-.5-.2-1.4.5-3.4-.6-3.7-.9-.1-1.5 1.6-1.8 2.6-.1.5-.6.9-.5-2.6 0-.9 0-3.4-.5-3.5h-.2c-1.5.1-2.6 5.9-3 7.5-.3-1.7-2-8.6-3.3-7.1-.3.9-.1 1.3-.2 2.2 0 .5-.1 4-.5 3.4-.2-1-1.4-3.1-2-2.8-1.2 1-.2 2.5-.5 3.9-.2 1.4-.7 1.7-1.5.4-.5-.6-1.2-3.1-2-3.2-1.5-.2-1.1 2.1-1.1 2.8-.7 0-1.6-.2-2.5-.1-1.1.2-1.8.8-2.2 1.8-.1.2 0 7.9 7.1 8.1 1.2 0 2-.1 3-.5.6-.2 1.2-.7 1.7-.3l7.3.5c.5-.4 1.1-.7 1.6-.5 1 .4 2.4 1.2 3.5 1.2 3.6 0 6.8-1.4 7.9-4.7.2-.2-.3-2.9-.4-3.1z"/><path fill="#EA7847" d="M46.8 66.4c-.3-1.7.1-3.3.5-4.9 0 0 1.1-3.5 2.8-3.8 4.4-.8 4.8 8.9 4.8 8.9-5.2 2.1-8.1-.2-8.1-.2z"/><path fill="#E6A460" d="M62.3 67.6c-.3-.7-1.6-1.3-2.6-1.4-2-.2-9 1.3-9 1.3v.1c-.9-.2-7.1-1.9-9-1.7-1 .1-2.4.6-2.6 1.3-.5 1 .1 2.4.6 3.5.6 1.3 2.1 3.1 3.6 4 .6.4 1.3.6 2 .6 5.4.1 5.7-3.1 5.7-3l.1-.6c.2 0-.5 3.3 4.8 3.3.6 0 1.3.2 2-.1 1.5-.9 3.1-2.6 3.7-3.9.5-1 1.2-2.3.7-3.4z"/><path fill="#C45143" d="M46.7 66.6c.2-.6 4.3.1 4.3.1s3.5-.8 4.1.1c.1.2-.5.9-.5.9s-1.5-.1-1.8.2c-.5.4-.6 2.4-.5 2.4s-.7 1-1.2 1c-.3 0-1.3-.7-1.2-.8.1-.1-.1-2.2-.6-2.6-.3-.3-1.5.1-2-.1-.1-.3-.6-1.2-.6-1.2z"/><path fill="#E6A460" d="M31.4 61.7c.6 1.7 1.8 2.9 3.5 3.7 1.1.6 2-1 1-1.7-1.1-.6-2-1.4-2.5-2.6-.5-1.1-2.4-.6-2 .6zm35.1 3.6c1.2-.8 2.5-1.6 3.2-2.9.6-1-1.1-2.1-1.7-.9-.5.9-1.6 1.6-2.6 2.2-.5.3-.6.8-.3 1.3.1.4 1 .7 1.4.3z"/><path fill="#151841" d="M46.5 75.5c-.2 0-.5-.2-.5-.4s.1-.4.5-.4c3.9-.3 4.1-2.6 4.3-2.6 0-.2.2-.4.5-.3.2 0 .5.2.5.4 0 .1 0 2.2 4.1 2.4.2 0 .5.2.5.4s-.2.4-.5.4c-2 0-3.5-.6-4.3-1.7-.1-.1-.2-.3-.2-.4-.9.9-2.2 2-4.9 2.2z"/><path fill="#C45143" d="M55 66.9c.1.2-.5.9-.5.9s-1.5-.1-1.7.2c-.5.4-.6 2.4-.5 2.4s-.7 1-1.2 1c-.3 0-1.3-.7-1.2-.8.1-.1-.1-2.2-.6-2.6-.3-.3-1.5.1-2-.1-.3-.1-.6-1-.6-1"/><path fill="#151841" d="M51 71.8c-.5 0-1.7-1.3-1.6-1.4 0-.4-.2-1.8-.5-2.2h-.7c-.5 0-.9.1-1.1-.1-.5-.2-.7-.9-.9-1.3-.1-.2 0-.4.2-.5s.5 0 .5.2c.1.4.5.8.5.8h.6c.5 0 1-.1 1.3.2.6.5.7 2.2.7 2.4v.4c.2.2.5.4.7.5.2-.1.5-.5.7-.7 0-.2 0-.5.1-1 .2-1.2.5-1.4.6-1.6.3-.3 1.3-.3 2-.3.1-.2.2-.3.2-.4 0-.2 0-.3.2-.4s.5-.1.5.1c.1.1.3.5-.5 1.4-.1.1-.2.2-.3.1-.6 0-1.4 0-1.5.1-.2.2-.5 1.4-.5 1.8v.2c.3.5-.5 1.6-1.2 1.7z"/><path fill="#FFF" d="M27.5 53.5c1.8-1.7 2.9-5.2 3.3-8.1-.1.4 3.1.5 4.9-1.4 1.3-1.3.5-2.4-.2-4-2-4.2-5.5-7.5-8.8-10.6-.9-.8-1.7-2.9-3.2-2.4-1.2.4-1.1 3.8-.9 4.8 1.4 8.8 4.9 21.7 4.9 21.7zm44.5-.9c-1.7-1.7-3.5-5.1-3.9-7.8 0 .4-3.1.4-4.8-1.6-1.2-1.3-.5-2.2.5-3.7 2.2-3.8 5.8-6.8 9.2-9.7 1-.7 2-1.7 3.3-1.2 1.2.5.9 2.8.6 3.7-1.7 10-4.9 20.3-4.9 20.3z"/><path fill="#E36942" d="M72.3 39.2c-2.4.6-4.9 2-6 4.1-.5-2.6 2-5.5 4-6.9.6-.4 0-1.4-.6-1-2.6 1.8-5.2 5.4-4.5 8.6.1.3.5.5.7.4l-.1.3c-.1.7 1.1 1 1.2.3.5-2.6 3.2-4 5.7-4.6.6-.3.3-1.4-.4-1.2zm-43-2.8c-.6-.4-1.2.5-.6 1 1.7 1.2 3.7 3.6 4 5.9-1.1-2.2-3.6-3.5-6-4.1-.7-.2-1.1.9-.3 1.2 2.5.6 5.1 2.1 5.7 4.6.1.5.6.5.9.3.3.2.7.1.9-.3.7-3.3-2-6.8-4.6-8.6z"/><path fill="#151841" d="M35.2 38.2c-1.8-3.1-4.4-5.6-7-8.1L25.4 27c-.5-.5-1.6-.7-2.2-.1-1.4 1.3-1.1 3.9-.9 5.6.5 3.2 1.1 6.3 1.8 9.4.9 4 1.8 7.9 2.9 11.9 0 .2.2.3.3.3.1.1.3 0 .5-.1 2-2 2.9-4.9 3.3-7.7 1.3.2 3.5-.7 4-1 3.2-2 1.5-4.9.1-7.1zm-.8 6.4c-.5.3-1.2.5-1.8.6-.2 0-1.2 0-1.2.1-.1-.4-.9-.5-1 0-.5 2.5-1.1 5.2-2.6 7.2-1.8-6.7-3.5-13.6-4.5-20.4-.2-1.2-.3-6.2 1.8-4l2 2.4c1 .9 2 2 2.9 2.9 2 2.1 3.7 4.4 5 7 .3.6.6 1.2.7 1.7.7 1-.4 1.9-1.3 2.5zM75.1 28c-1 .1-1.8.8-2.5 1.4-1.3 1.2-2.6 2.2-3.9 3.3-2.4 2.2-4.3 4.5-5.9 7.2-1.3 2.2-.2 3.9 2 4.9.5.2 2 .7 2.9.6.5 2.8 2 5.5 3.9 7.4.3.2.4.2.6.2.1 0 .2-.1.3-.3 1.2-3.7 2.1-7.5 3.1-11.3.7-3.1 1.5-6.4 2-9.6.1-1.8 0-3.9-2.5-3.8zm1.4 3.5c-.5 4.6-1.8 9.4-3 13.9-.5 2.1-1.1 4.1-1.7 6.1-1.7-2-2.8-4.4-3.2-7-.1-.5-.9-.4-1 0 .1-.3.2-.2-.2-.1-.5 0-.9-.1-1.3-.2-1.2-.3-2.9-1.2-3-2.5-.1-.9 1-2.2 1.5-3 .7-1.2 1.6-2.2 2.5-3.2 1.6-1.7 3.3-3.2 5.1-4.7.7-.6 1.5-1.3 2.5-1.8 1.9-1 1.9 1.6 1.8 2.5z"/><path fill="#5D6AB5" d="M42.5 61l-3.4 1-3.1-1.6-1-3.4 1.7-3.2 3.4-1 3.1 1.7 1 3.4z"/><path fill="#16263F" d="M48.2 58.3l-4-.4-1-3.4 3.1-2.5z"/><path fill="#213254" d="M48.2 58.3l-4-.4-1.7 3.1 2.6 3.1zM46.3 52l-3.1 2.5-3.1-1.7.4-3.9z"/><path fill="#2D3F6B" d="M45.1 64.1L42.5 61l-3.4 1-.4 4zm-4.6-15.2l-.4 3.9-3.4 1-2.5-3z"/><path fill="#3F5189" d="M32.9 62.9l3.1-2.5 3.1 1.6-.4 4z"/><path fill="#4C5C9E" d="M31.1 56.6l3.9.4 1 3.4-3.1 2.5z"/><path fill="#3F5189" d="M35 57l1.7-3.2-2.5-3-3.1 5.8z"/><path fill="#98AEE5" d="M46.4 51.8l-5.8-3.1h-.1.1s-.1-.1-.1 0l-6.4 2.1-.1.1-3.1 5.8 1.9 6.3 5.8 3.1h.2l6.3-1.9s.1 0 .1-.1l3.1-5.8v-.2l-1.9-6.3zm-1 .6l-.7.6-1.1.9c-.2.2-.4.2-.6.1l-2.3-1.2c-.2-.1-.3-.3-.3-.5l.2-2.3c.1-.4.5-.6.8-.4l3.9 1.9c.3.2.4.7.1.9zm-10.2-1.7l1.2-.4 3.2-.9c.3 0 .6.3.6.6l-.2 2.3c0 .2-.2.4-.4.5l-2.6.7c-.2 0-.5 0-.6-.2l-1.5-1.8c-.2-.3-.1-.7.3-.8zm-3.5 4.9l2.1-3.8c.2-.3.7-.3.7-.2l1.5 1.8c.2.2.2.4.1.6l-1.2 2.3c-.1.2-.3.3-.5.3l-2.3-.2c-.4-.1-.6-.5-.4-.8zm1.1 6.2l-1.3-4.2c-.1-.4.2-.7.6-.7l2.3.3c.2.1.3.2.4.4l.4 1.2.4 1.2c0 .2 0 .5-.2.6l-1.8 1.5c-.3.2-.7.1-.8-.3zm5.9 3.1c-.1.4-.5.6-.8.4L34 63.4c-.3-.2-.4-.7-.1-.9l.7-.6 1.1-.9c.2-.2.4-.2.6-.1l2.3 1.2c.2.1.3.3.3.5l-.2 2.3zm-2.3-4.6c-.2-.1-.3-.2-.3-.3l-.4-1.4-.4-1.4v-.4l1.4-2.6c.1-.2.2-.3.3-.3l2.8-.8c.1-.1.3-.1.4 0l2.6 1.4c.2.1.3.2.3.3l.8 2.8c.1.1.1.3 0 .4l-1.4 2.6c-.1.2-.2.3-.3.3l-2.8.8c-.1.1-.3.1-.4 0l-2.6-1.4zm7.5 3.8l-4.2 1.3c-.3.2-.7-.1-.6-.7l.2-2.3c.1-.2.2-.3.4-.4l2.4-.7c.2 0 .5 0 .6.2l1.5 1.8c.2.3.1.7-.3.8zm3.6-4.9L45.4 63c-.2.3-.7.4-.9.1L43 61.3c-.1-.2-.1-.4 0-.6l1.3-2.2c.1-.2.3-.3.5-.3l2.3.2c.4.1.6.5.4.8zm-.5-1.3l-2.3-.2c-.2 0-.3-.2-.5-.4l-.7-2.5c0-.2 0-.5.2-.6l1.8-1.5c.3-.2.7-.1.8.3l1.3 4.2c.1.4-.2.7-.6.7z"/><path fill="#5D6AB5" d="M64.8 61l-3.4 1-3.1-1.6-1-3.4 1.7-3.2 3.4-1 3.1 1.7 1 3.4z"/><path fill="#16263F" d="M70.5 58.3l-4-.4-1-3.4 3.1-2.5z"/><path fill="#213254" d="M70.5 58.3l-4-.4-1.7 3.1 2.6 3.1zM68.6 52l-3.1 2.5-3.1-1.7.4-3.9z"/><path fill="#2D3F6B" d="M67.4 64.1L64.8 61l-3.4 1-.4 4zm-4.6-15.2l-.4 3.9-3.4 1-2.5-3z"/><path fill="#3F5189" d="M55.2 62.9l3.1-2.5 3.1 1.6-.4 4z"/><path fill="#4C5C9E" d="M53.4 56.6l3.9.4 1 3.4-3.1 2.5z"/><path fill="#3F5189" d="M57.3 57l1.7-3.2-2.5-3-3.1 5.8z"/><path fill="#98AEE5" d="M68.8 51.8L63 48.7h-.1.1s-.1-.1-.1 0l-6.4 2.1-.1.2-3.1 5.8 1.9 6.3 5.8 3.1h.2l6.3-1.9s.1 0 .1-.1l3.1-5.8v-.2l-1.9-6.4zm-1 .6l-.7.6-1.1.9c-.2.2-.4.2-.6.1l-2.3-1.2c-.2-.1-.3-.3-.3-.5L63 50c.1-.4.5-.6.8-.4l3.9 1.9c.2.2.4.7.1.9zm-10.2-1.7l1.2-.4 3.2-.9c.3 0 .6.3.6.6l-.2 2.3c0 .2-.2.4-.4.5l-2.5.7c-.2 0-.5 0-.6-.2l-1.5-1.8c-.3-.3-.3-.7.2-.8zm-3.5 4.9l2.1-3.8c.2-.3.7-.3.7-.2l1.5 1.8c.2.2.2.4.1.6l-1.2 2.3c-.1.2-.3.3-.5.3l-2.3-.2c-.4-.1-.7-.5-.4-.8zm1 6.2l-1.3-4.2c-.1-.4.2-.7.6-.7l2.3.3c.2.1.3.2.4.4l.4 1.2.4 1.2c0 .2 0 .5-.2.6l-1.8 1.5c-.3.2-.6.1-.8-.3zm6 3.1c-.1.4-.5.6-.8.4l-3.9-1.9c-.3-.2-.4-.7-.1-.9l.7-.6 1.1-.9c.2-.2.4-.2.6-.1l2.3 1.2c.2.1.3.3.3.5l-.2 2.3zm-2.3-4.6c-.2-.1-.3-.2-.3-.3l-.4-1.4-.4-1.4v-.4l1.4-2.6c.1-.2.2-.3.3-.3l2.8-.8c.1-.1.3-.1.4 0l2.6 1.4c.2.1.3.2.3.3l.8 2.8c.1.1.1.3 0 .4l-1.4 2.6c-.1.2-.2.3-.3.3l-2.8.8c-.1.1-.3.1-.4 0l-2.6-1.4zm7.5 3.8l-4.2 1.3c-.3.2-.7-.1-.6-.7l.2-2.3c.1-.2.2-.3.4-.4l2.4-.7c.2 0 .5 0 .6.2l1.5 1.8c.2.3 0 .7-.3.8zm3.5-4.9l-2 3.8c-.2.3-.7.4-.9.1l-1.5-1.8c-.1-.2-.1-.4 0-.6l1.3-2.2c.1-.2.3-.3.5-.3l2.3.2c.3.1.6.5.3.8zm-.5-1.3l-2.3-.2c-.2 0-.3-.2-.5-.4l-.7-2.5c0-.2 0-.5.2-.6l1.8-1.5c.3-.2.7-.1.8.3l1.3 4.2c.2.4-.1.7-.6.7z"/><path fill="#FFF" d="M34.1 49.7l1.1-3.6 1 3.6 3.7 1.1-3.7 1-1 3.6-1.1-3.6-3.6-1zm21.7 9.4l1.3-4.6 1.3 4.6 4.6 1.3-4.6 1.3-1.3 4.6-1.3-4.6-4.6-1.3z"/></svg>
